<svg width="900" height="300" xmlns="http://www.w3.org/2000/svg" style="background-color: #1E1E1E; font-family: Consolas, monospace;">
    <text x="10" y="25" fill="#D4D4D4" font-size="16" font-weight="bold">Behavioral Simulation (Ideal RTL)</text><line x1="150" y1="40" x2="150" y2="280" stroke="#555555" stroke-dasharray="4" /><text x="150" y="35" fill="#555555" font-size="12" text-anchor="middle">0 ns</text><line x1="250" y1="40" x2="250" y2="280" stroke="#555555" stroke-dasharray="4" /><text x="250" y="35" fill="#555555" font-size="12" text-anchor="middle">1000 ns</text><line x1="350" y1="40" x2="350" y2="280" stroke="#555555" stroke-dasharray="4" /><text x="350" y="35" fill="#555555" font-size="12" text-anchor="middle">2000 ns</text><line x1="450" y1="40" x2="450" y2="280" stroke="#555555" stroke-dasharray="4" /><text x="450" y="35" fill="#555555" font-size="12" text-anchor="middle">3000 ns</text><line x1="550" y1="40" x2="550" y2="280" stroke="#555555" stroke-dasharray="4" /><text x="550" y="35" fill="#555555" font-size="12" text-anchor="middle">4000 ns</text><line x1="650" y1="40" x2="650" y2="280" stroke="#555555" stroke-dasharray="4" /><text x="650" y="35" fill="#555555" font-size="12" text-anchor="middle">5000 ns</text><line x1="750" y1="40" x2="750" y2="280" stroke="#555555" stroke-dasharray="4" /><text x="750" y="35" fill="#555555" font-size="12" text-anchor="middle">6000 ns</text><line x1="850" y1="40" x2="850" y2="280" stroke="#555555" stroke-dasharray="4" /><text x="850" y="35" fill="#555555" font-size="12" text-anchor="middle">7000 ns</text><text x="10" y="70" fill="#D4D4D4" font-size="14">clk</text><line x1="140" y1="55" x2="900" y2="55" stroke="#555555" stroke-width="0.5" /><text x="10" y="105" fill="#D4D4D4" font-size="14">rst</text><line x1="140" y1="90" x2="900" y2="90" stroke="#555555" stroke-width="0.5" /><text x="10" y="140" fill="#D4D4D4" font-size="14">start</text><line x1="140" y1="125" x2="900" y2="125" stroke="#555555" stroke-width="0.5" /><text x="10" y="175" fill="#D4D4D4" font-size="14">plaintext[127:0]</text><line x1="140" y1="160" x2="900" y2="160" stroke="#555555" stroke-width="0.5" /><text x="10" y="210" fill="#D4D4D4" font-size="14">key[127:0]</text><line x1="140" y1="195" x2="900" y2="195" stroke="#555555" stroke-width="0.5" /><text x="10" y="245" fill="#D4D4D4" font-size="14">done</text><line x1="140" y1="230" x2="900" y2="230" stroke="#555555" stroke-width="0.5" /><text x="10" y="280" fill="#D4D4D4" font-size="14">ciphertext[127:0]</text><line x1="140" y1="265" x2="900" y2="265" stroke="#555555" stroke-width="0.5" /><path d="M 150 70 L 150 70 L 150 50 L 170 50 L 170 70 L 190 70 L 190 50 L 210 50 L 210 70 L 230 70 L 230 50 L 250 50 L 250 70 L 270 70 L 270 50 L 290 50 L 290 70 L 310 70 L 310 50 L 330 50 L 330 70 L 350 70 L 350 50 L 370 50 L 370 70 L 390 70 L 390 50 L 410 50 L 410 70 L 430 70 L 430 50 L 450 50 L 450 70 L 470 70 L 470 50 L 490 50 L 490 70 L 510 70 L 510 50 L 530 50 L 530 70 L 550 70 L 550 50 L 570 50 L 570 70 L 590 70 L 590 50 L 610 50 L 610 70 L 630 70 L 630 50 L 650 50 L 650 70 L 670 70 L 670 50 L 690 50 L 690 70 L 710 70 L 710 50 L 730 50 L 730 70 L 750 70 L 750 50 L 770 50 L 770 70 L 790 70 L 790 50 L 810 50 L 810 70 L 830 70 L 830 50 L 850 50 L 850 70 L 870 70 L 870 50 L 890 50 L 890 70 L 910 70 L 910 50 L 930 50 L 930 70 L 950 70" stroke="#4AF626" stroke-width="1.5" fill="none" /><path d="M 150 105 L 185 105 L 185 105 L 900 105" stroke="#4AF626" stroke-width="1.5" fill="none" /><path d="M 150 120 L 205 120 L 205 120 L 245 120 L 245 140 L 900 140" stroke="#4AF626" stroke-width="1.5" fill="none" /><rect x="150" y="155" width="0" height="20" fill="red" fill-opacity="0.3" stroke="red" /><text x="155" y="170" fill="red" font-size="12">XX..XX</text><polygon points="150,165 155,155 200,155 205,165 200,175 155,175" fill="none" stroke="#00FFFF" stroke-width="1.5" /><text x="160" y="170" fill="#D4D4D4" font-size="12">3243f6a8885a308d...</text><polygon points="205,165 210,155 900,155 900,175 210,175" fill="none" stroke="#00FFFF" stroke-width="1.5" /><text x="215" y="170" fill="#D4D4D4" font-size="12"></text><rect x="150" y="190" width="0" height="20" fill="red" fill-opacity="0.3" stroke="red" /><text x="155" y="205" fill="red" font-size="12">XX..XX</text><polygon points="150,200 155,190 200,190 205,200 200,210 155,210" fill="none" stroke="#00FFFF" stroke-width="1.5" /><text x="160" y="205" fill="#D4D4D4" font-size="12">2b7e151628aed2a6...</text><polygon points="205,200 210,190 900,190 900,210 210,210" fill="none" stroke="#00FFFF" stroke-width="1.5" /><text x="215" y="205" fill="#D4D4D4" font-size="12"></text><path d="M 150 225 L 645 225 L 645 225 L 685 225 L 685 245 L 900 245" stroke="#4AF626" stroke-width="1.5" fill="none" /><rect x="150" y="260" width="0" height="20" fill="red" fill-opacity="0.3" stroke="red" /><text x="155" y="275" fill="red" font-size="12">XX..XX</text><polygon points="150,270 155,260 640,260 645,270 640,280 155,280" fill="none" stroke="#00FFFF" stroke-width="1.5" /><text x="160" y="275" fill="#D4D4D4" font-size="12">3925841d02dc09fb...</text><polygon points="645,270 650,260 900,260 900,280 650,280" fill="none" stroke="#00FFFF" stroke-width="1.5" /><text x="655" y="275" fill="#D4D4D4" font-size="12"></text></svg>